<mxfile host="app.diagrams.net" agent="Mozilla/5.0 (X11; Linux x86_64; rv:129.0) Gecko/20100101 Firefox/129.0" version="24.7.8">
  <diagram name="Page-1" id="x436nw2a3fQkttNt9fFi">
    <mxGraphModel dx="1209" dy="647" grid="1" gridSize="10" guides="1" tooltips="1" connect="1" arrows="1" fold="1" page="1" pageScale="1" pageWidth="850" pageHeight="1100" math="0" shadow="0">
      <root>
        <mxCell id="0" />
        <mxCell id="1" parent="0" />
        <mxCell id="jeCg72-pYYv0W8vjRzq4-4" value="início" style="ellipse;whiteSpace=wrap;html=1;fillColor=#d5e8d4;strokeColor=#82b366;" parent="1" vertex="1">
          <mxGeometry x="80" y="40" width="120" height="80" as="geometry" />
        </mxCell>
        <mxCell id="jeCg72-pYYv0W8vjRzq4-16" style="edgeStyle=orthogonalEdgeStyle;rounded=0;orthogonalLoop=1;jettySize=auto;html=1;" parent="1" edge="1">
          <mxGeometry relative="1" as="geometry">
            <mxPoint x="130" y="430" as="sourcePoint" />
          </mxGeometry>
        </mxCell>
        <mxCell id="klOBz9_SC71Y1ds55rlh-22" value="não" style="edgeStyle=orthogonalEdgeStyle;rounded=0;orthogonalLoop=1;jettySize=auto;html=1;entryX=0;entryY=0.5;entryDx=0;entryDy=0;" parent="1" source="klOBz9_SC71Y1ds55rlh-18" edge="1">
          <mxGeometry relative="1" as="geometry">
            <Array as="points">
              <mxPoint x="250" y="500" />
              <mxPoint x="250" y="185" />
            </Array>
            <mxPoint x="280" y="185" as="targetPoint" />
          </mxGeometry>
        </mxCell>
        <mxCell id="d3MKEvzSY7tE_r2hZzPd-4" style="edgeStyle=orthogonalEdgeStyle;rounded=0;orthogonalLoop=1;jettySize=auto;html=1;entryX=0.5;entryY=0;entryDx=0;entryDy=0;" edge="1" parent="1" source="d3MKEvzSY7tE_r2hZzPd-1" target="d3MKEvzSY7tE_r2hZzPd-3">
          <mxGeometry relative="1" as="geometry" />
        </mxCell>
        <mxCell id="d3MKEvzSY7tE_r2hZzPd-1" value="a, b" style="html=1;strokeWidth=2;shape=manualInput;whiteSpace=wrap;rounded=1;size=26;arcSize=11;fillColor=#fff2cc;strokeColor=#d6b656;" vertex="1" parent="1">
          <mxGeometry x="90" y="160" width="100" height="60" as="geometry" />
        </mxCell>
        <mxCell id="d3MKEvzSY7tE_r2hZzPd-2" style="edgeStyle=orthogonalEdgeStyle;rounded=0;orthogonalLoop=1;jettySize=auto;html=1;entryX=0.5;entryY=0.167;entryDx=0;entryDy=0;entryPerimeter=0;" edge="1" parent="1" source="jeCg72-pYYv0W8vjRzq4-4" target="d3MKEvzSY7tE_r2hZzPd-1">
          <mxGeometry relative="1" as="geometry" />
        </mxCell>
        <mxCell id="d3MKEvzSY7tE_r2hZzPd-3" value="A = a * b" style="rounded=0;whiteSpace=wrap;html=1;fillColor=#dae8fc;strokeColor=#6c8ebf;" vertex="1" parent="1">
          <mxGeometry x="80" y="270" width="120" height="50" as="geometry" />
        </mxCell>
        <mxCell id="d3MKEvzSY7tE_r2hZzPd-8" style="edgeStyle=orthogonalEdgeStyle;rounded=0;orthogonalLoop=1;jettySize=auto;html=1;entryX=0.5;entryY=0;entryDx=0;entryDy=0;" edge="1" parent="1" source="d3MKEvzSY7tE_r2hZzPd-5" target="d3MKEvzSY7tE_r2hZzPd-7">
          <mxGeometry relative="1" as="geometry" />
        </mxCell>
        <mxCell id="d3MKEvzSY7tE_r2hZzPd-5" value="A" style="strokeWidth=2;html=1;shape=mxgraph.flowchart.display;whiteSpace=wrap;fillColor=#f8cecc;strokeColor=#b85450;" vertex="1" parent="1">
          <mxGeometry x="90" y="360" width="100" height="60" as="geometry" />
        </mxCell>
        <mxCell id="d3MKEvzSY7tE_r2hZzPd-6" style="edgeStyle=orthogonalEdgeStyle;rounded=0;orthogonalLoop=1;jettySize=auto;html=1;entryX=0.5;entryY=0;entryDx=0;entryDy=0;entryPerimeter=0;" edge="1" parent="1" source="d3MKEvzSY7tE_r2hZzPd-3" target="d3MKEvzSY7tE_r2hZzPd-5">
          <mxGeometry relative="1" as="geometry" />
        </mxCell>
        <mxCell id="d3MKEvzSY7tE_r2hZzPd-7" value="fim" style="ellipse;whiteSpace=wrap;html=1;fillColor=#d5e8d4;strokeColor=#82b366;" vertex="1" parent="1">
          <mxGeometry x="80" y="470" width="120" height="80" as="geometry" />
        </mxCell>
      </root>
    </mxGraphModel>
  </diagram>
</mxfile>
